<svg width="85" height="85" viewBox="0 0 85 85" fill="none" xmlns="http://www.w3.org/2000/svg">
<path d="M2.5 29.1667H82.5M20.2778 2.5V11.3889M64.7222 2.5V11.3889M15.8333 42.5H24.7222M38.0556 42.5H46.9444M60.2778 42.5H69.1667M15.8333 55.8333H24.7222M38.0556 55.8333H46.9444M60.2778 55.8333H69.1667M15.8333 69.1667H24.7222M38.0556 69.1667H46.9444M60.2778 69.1667H69.1667M16.7222 82.5H68.2778C73.256 82.5 75.7453 82.5 77.6467 81.5311C79.3191 80.6791 80.6791 79.3191 81.5311 77.6467C82.5 75.7453 82.5 73.256 82.5 68.2778V25.6111C82.5 20.6328 82.5 18.1437 81.5311 16.2423C80.6791 14.5697 79.3191 13.2099 77.6467 12.3577C75.7453 11.3889 73.256 11.3889 68.2778 11.3889H16.7222C11.744 11.3889 9.25484 11.3889 7.35342 12.3577C5.68084 13.2099 4.32102 14.5697 3.46884 16.2423C2.5 18.1437 2.5 20.6328 2.5 25.6111V68.2778C2.5 73.256 2.5 75.7453 3.46884 77.6467C4.32102 79.3191 5.68084 80.6791 7.35342 81.5311C9.25484 82.5 11.744 82.5 16.7222 82.5Z" stroke="#EE7325" stroke-width="5" stroke-linecap="round"/>
</svg>
