<svg width="80" height="80" viewBox="0 0 80 80" fill="none" xmlns="http://www.w3.org/2000/svg">
<path d="M12.3566 72.3567L22.2466 62.4667C26.4047 65.1887 31.277 66.6156 36.2466 66.5667C40.2014 66.5184 44.1065 65.6787 47.7316 64.0969C51.3566 62.515 54.6282 60.2232 57.3532 57.3567C70.0632 44.6667 73.1932 11.7 73.3332 10.3C73.3786 9.81203 73.3157 9.32006 73.1492 8.85914C72.9827 8.39822 72.7166 7.97968 72.3699 7.63334C72.0218 7.28905 71.603 7.02456 71.1426 6.85822C70.6821 6.69188 70.191 6.62766 69.7032 6.67001C63.3088 7.33672 56.9628 8.40663 50.7032 9.87334C50.1596 10.0011 49.6567 10.2634 49.2409 10.6361C48.825 11.0089 48.5095 11.4802 48.3232 12.0067L46.1599 18.12L44.3632 14.5033C44.0029 13.7803 43.3922 13.2128 42.6448 12.9062C41.8974 12.5997 41.0641 12.5749 40.2999 12.8367C33.7627 14.7542 27.7338 18.1017 22.6499 22.6367C10.7466 34.54 11.9299 49.5233 17.5332 57.7533L7.64323 67.6433C7.03603 68.272 6.70005 69.114 6.70765 69.988C6.71524 70.862 7.0658 71.698 7.68383 72.3161C8.30186 72.9341 9.1379 73.2847 10.0119 73.2923C10.8859 73.2998 11.7279 72.9639 12.3566 72.3567ZM27.3566 27.3567C30.944 24.143 35.1451 21.6893 39.7066 20.1433L43.6799 28.1433C43.9624 28.7383 44.4183 29.234 44.9875 29.5654C45.5568 29.8967 46.213 30.0482 46.8699 30C47.5229 29.9595 48.1496 29.7277 48.6718 29.3336C49.194 28.9394 49.5886 28.4002 49.8066 27.7833L53.9999 15.97C58.8166 14.91 63.1932 14.22 66.1999 13.8133C64.9766 22.7933 61.2666 44.0333 52.6566 52.6433C43.3632 61.9367 32.8399 60.8333 27.0966 57.6433L42.3699 42.37C42.9771 41.7413 43.3131 40.8993 43.3055 40.0253C43.2979 39.1513 42.9473 38.3153 42.3293 37.6973C41.7113 37.0792 40.8752 36.7287 40.0012 36.7211C39.1272 36.7135 38.2852 37.0495 37.6566 37.6567L22.3699 52.9167C19.1699 47.17 18.0666 36.6667 27.3566 27.3567Z" fill="#EE7325"/>
</svg>
